<svg width="60" height="60" viewBox="0 0 60 60" fill="none" xmlns="http://www.w3.org/2000/svg">
<g clip-path="url(#clip0_34_74)">
<path d="M56.4706 15.8824V21.1765H46.3396L31.7647 13.0793V10.5882H44.1176V0H28.2353V13.0793L13.6604 21.1765H3.52941V15.8824H0V60H60C60 58.0538 60 17.8128 60 15.8824H56.4706ZM40.5882 7.05882H31.7647V3.52941H40.5882V7.05882ZM56.4706 30H47.6471V24.7059H56.4706V30ZM47.6471 45.8824H56.4706V49.4118H47.6471V45.8824ZM47.6471 42.3529V33.5294H56.4706V42.3529H47.6471ZM44.1176 35.2941H15.8824V23.9795L30 16.1364L44.1176 23.9795V35.2941ZM3.52941 45.8824H12.3529V49.4118H3.52941V45.8824ZM3.52941 42.3529V33.5294H12.3529V42.3529H3.52941ZM12.3529 30H3.52941V24.7059H12.3529V30ZM3.52941 56.4706V52.9412H12.3529V56.4706H3.52941ZM26.4706 56.4706V45.8824H33.5294V56.4706H26.4706ZM37.0588 56.4706V42.3529H22.9412V56.4706H15.8824V38.8235H44.1176V56.4706H37.0588ZM47.6471 56.4706V52.9412H56.4706V56.4706H47.6471Z" fill="#FC6441"/>
<path d="M24.7059 26.4706C24.7059 29.3899 27.0809 31.7647 30.0001 31.7647C32.9192 31.7647 35.2942 29.3899 35.2942 26.4706C35.2942 23.5513 32.9192 21.1765 30.0001 21.1765C27.0809 21.1765 24.7059 23.5513 24.7059 26.4706ZM31.7648 26.4706C31.7648 27.4437 30.9731 28.2353 30.0001 28.2353C29.027 28.2353 28.2353 27.4437 28.2353 26.4706C28.2353 25.4976 29.027 24.7059 30.0001 24.7059C30.9731 24.7059 31.7648 25.4976 31.7648 26.4706Z" fill="#FC6441"/>
</g>
<defs>
<clipPath id="clip0_34_74">
<rect width="60" height="60" fill="white"/>
</clipPath>
</defs>
</svg>
