<svg width="60" height="60" viewBox="0 0 60 60" fill="none" xmlns="http://www.w3.org/2000/svg">
<g clip-path="url(#clip0_34_56)">
<path d="M56.4694 33.7531V16.0592L59.9793 14.3841L29.9897 0.0708008L0 14.3841L10.5713 19.4294V31.3629L29.9897 41.0722L49.4081 31.3629V19.4294L52.9388 17.7444V33.7532C50.884 34.4819 49.4081 36.4441 49.4081 38.7455C49.4081 41.6657 51.7838 44.0414 54.7041 44.0414C57.6244 44.0414 60 41.6657 60 38.7455C60 36.444 58.5241 34.4818 56.4694 33.7531ZM45.8775 29.1808L29.9897 37.1247L14.1019 29.1808V21.1145L29.9897 28.6973L45.8775 21.1145V29.1808ZM29.9897 24.7852L8.19681 14.3841L29.9896 3.98297L51.7825 14.3841L29.9897 24.7852ZM54.7041 40.5107C53.7306 40.5107 52.9388 39.7188 52.9388 38.7454C52.9388 37.772 53.7306 36.9801 54.7041 36.9801C55.6775 36.9801 56.4694 37.772 56.4694 38.7454C56.4694 39.7188 55.6775 40.5107 54.7041 40.5107Z" fill="#7768E5"/>
<path d="M47.6428 45.8066C43.9087 45.8066 16.0282 45.8066 12.3366 45.8066C9.36686 45.8066 7.04065 48.9083 7.04065 52.8679C7.04065 56.8275 9.36686 59.9291 12.3366 59.9291H47.6428C50.6124 59.9291 52.9388 56.8275 52.9388 52.8679C52.9388 48.9083 50.6124 45.8066 47.6428 45.8066ZM10.5713 52.8679C10.5713 50.7126 11.6168 49.3373 12.3366 49.3373C13.0564 49.3373 14.1019 50.7126 14.1019 52.8679C14.1019 55.0232 13.0564 56.3985 12.3366 56.3985C11.6168 56.3985 10.5713 55.0231 10.5713 52.8679ZM16.9433 56.3985C17.863 54.234 17.8632 51.5025 16.9433 49.3373H26.4591V56.3985H16.9433ZM29.9897 56.3985V49.3373H35.2856V56.3985H29.9897ZM47.6428 56.3985H38.8163V49.3373H47.6428C48.3626 49.3373 49.4081 50.7126 49.4081 52.8679C49.4081 55.0232 48.3626 56.3985 47.6428 56.3985Z" fill="#7768E5"/>
</g>
<defs>
<clipPath id="clip0_34_56">
<rect width="60" height="60" fill="white"/>
</clipPath>
</defs>
</svg>
