<svg width="60" height="60" viewBox="0 0 60 60" fill="none" xmlns="http://www.w3.org/2000/svg">
<g clip-path="url(#clip0_34_65)">
<path d="M42.4489 21.7039L52.0951 0H34.1473L30 9.33141L25.8527 0H7.90497L17.5511 21.7039C12.2656 25.558 8.82356 31.7959 8.82356 38.8235C8.82356 50.5002 18.3233 60 30 60C41.6767 60 51.1765 50.5002 51.1765 38.8235C51.1765 31.7959 47.7345 25.558 42.4489 21.7039ZM39.408 19.8556C38.5487 19.4276 37.6571 19.0556 36.7369 18.746L43.4998 3.52941H46.664L39.408 19.8556ZM36.441 3.52941H39.6374L33.252 17.8967C32.2447 17.7408 31.2139 17.6573 30.1656 17.6491L36.441 3.52941ZM28.0689 13.6765L26.4706 17.2726L20.3625 3.52941H23.5591L28.0689 13.6765ZM13.3359 3.52941H16.5001L23.2631 18.746C22.3429 19.0556 21.4512 19.4276 20.5919 19.8556L13.3359 3.52941ZM30 56.4706C20.2694 56.4706 12.353 48.5541 12.353 38.8235C12.353 29.0929 20.2694 21.1765 30 21.1765C39.7306 21.1765 47.6471 29.0929 47.6471 38.8235C47.6471 48.5541 39.7306 56.4706 30 56.4706Z" fill="#F8CA4D"/>
<path d="M33.3942 34.4972L30 27.6199L26.6058 34.4972L19.0162 35.6L24.5081 40.9533L23.2116 48.5121L30 44.9433L36.7884 48.512L35.4919 40.9532L40.9838 35.5999L33.3942 34.4972ZM32.1008 42.0603L30 40.9559L27.8992 42.0603L28.3004 39.721L26.6008 38.0645L28.9495 37.7232L30 35.5947L31.0505 37.723L33.3992 38.0643L31.6996 39.7209L32.1008 42.0603Z" fill="#F8CA4D"/>
</g>
<defs>
<clipPath id="clip0_34_65">
<rect width="60" height="60" fill="white"/>
</clipPath>
</defs>
</svg>
