<svg width="60" height="60" viewBox="0 0 60 60" fill="none" xmlns="http://www.w3.org/2000/svg">
<path d="M38.2598 36.9905H30H21.7402C15.5591 36.9905 10.5304 42.0192 10.5304 48.2003V60H49.4696V48.2003C49.4696 42.0193 44.4409 36.9905 38.2598 36.9905ZM28.23 50.1134V53.957L16.6996 42.4266C17.4029 41.8117 18.2178 41.3216 19.1113 40.9946L28.23 50.1134ZM31.77 50.1134L40.8886 40.9947C41.7821 41.3217 42.597 41.8119 43.3004 42.4268L31.77 53.9571V50.1134ZM36.3467 40.5304L30 46.8772L23.6533 40.5304H36.3467ZM14.0703 48.2003C14.0703 47.1946 14.2669 46.2344 14.6203 45.3536L25.7269 56.4601H14.0703V48.2003ZM45.9297 56.4601H34.2731L45.3796 45.3536C45.7331 46.2344 45.9297 47.1946 45.9297 48.2003V56.4601Z" fill="#2B7258"/>
<path d="M40.6198 26.3706V18.3271C40.6198 17.7473 40.5551 17.1828 40.4357 16.6384L44.1597 14.5942V26.9607H47.6997V12.651L49.4862 11.6703L30 0L10.514 11.6703L19.5643 16.6384C19.4449 17.1828 19.3802 17.7473 19.3802 18.3271V26.3706C19.3802 32.2264 24.1442 36.9904 30 36.9904C35.8558 36.9904 40.6198 32.2264 40.6198 26.3706ZM17.6268 11.5368L30 4.12627L42.3733 11.5368L38.913 13.4362C37.4673 11.6135 35.2354 10.441 32.7337 10.441H27.2663C24.7646 10.441 22.5327 11.6135 21.087 13.4362L17.6268 11.5368ZM37.0038 17.5208H22.9964C23.3756 15.5083 25.1455 13.9809 27.2665 13.9809H32.7338C34.8547 13.9809 36.6245 15.5085 37.0038 17.5208ZM30 33.4505C26.0962 33.4505 22.9201 30.2745 22.9201 26.3706V21.0607H37.0799V26.3706C37.0799 30.2745 33.9038 33.4505 30 33.4505Z" fill="#2B7258"/>
</svg>
